# 3ds Max Wavefront OBJ Exporter v0.97b - (c)2007 guruware
# File Created: 09.02.2018 02:05:09

#
# object
#

v  -0.5150 0.1306 1.1277
v  -0.5206 -2.1428 1.1399
v  0.1783 -2.1428 1.2404
v  0.1764 0.1306 1.2272
v  -1.0430 0.1306 0.6703
v  -1.0542 -2.1428 0.6775
v  -1.2398 0.1306 -0.0000
v  -1.2531 -2.1428 -0.0000
v  -1.0430 0.1306 -0.6703
v  -1.0542 -2.1428 -0.6775
v  -0.5150 0.1306 -1.1277
v  -0.5206 -2.1428 -1.1399
v  0.1764 0.1306 -1.2272
v  0.1783 -2.1428 -1.2404
v  0.8119 0.1306 -0.9370
v  0.8206 -2.1428 -0.9470
v  1.1896 0.1306 -0.3493
v  1.2024 -2.1428 -0.3530
v  1.1896 0.1306 0.3493
v  1.2024 -2.1428 0.3530
v  0.8119 0.1306 0.9370
v  0.8206 -2.1428 0.9470
v  0.0000 -2.1657 -0.0000
v  -0.5150 0.6908 1.1277
v  0.1764 0.6908 1.2272
v  -1.0430 0.6908 0.6703
v  -1.2398 0.6908 -0.0000
v  -1.0430 0.6908 -0.6703
v  -0.5150 0.6908 -1.1277
v  0.1764 0.6908 -1.2272
v  0.8119 0.6908 -0.9370
v  1.1896 0.6908 -0.3493
v  1.1896 0.6908 0.3493
v  0.8119 0.6908 0.9370
v  -0.4763 0.7726 1.1259
v  -0.9839 0.7727 0.6860
v  -1.1732 0.7728 0.0415
v  -0.9839 0.7729 -0.6030
v  -0.4763 0.7729 -1.0429
v  0.1886 0.7729 -1.1385
v  0.7996 0.7728 -0.8594
v  1.1628 0.7727 -0.2944
v  1.1628 0.7726 0.3774
v  0.1764 1.4721 1.2272
v  -0.4763 1.4038 1.1259
v  -0.9839 1.4039 0.6860
v  -1.1732 1.4040 0.0415
v  -0.9839 1.4041 -0.6030
v  -0.4763 1.4041 -1.0429
v  0.1886 1.4041 -1.1385
v  0.7996 1.4040 -0.8594
v  1.1628 1.4039 -0.2944
v  1.1628 1.4038 0.3774
v  0.8119 1.4721 0.9370
v  -0.5150 2.0323 1.1277
v  -0.5150 1.4721 1.1277
v  0.1764 2.0323 1.2272
v  -1.0430 2.0323 0.6703
v  -1.0430 1.4721 0.6703
v  -1.2398 2.0323 -0.0000
v  -1.2398 1.4721 -0.0000
v  -1.0430 2.0323 -0.6703
v  -1.0430 1.4721 -0.6703
v  -0.5150 2.0323 -1.1277
v  -0.5150 1.4721 -1.1277
v  0.1764 2.0323 -1.2272
v  0.1764 1.4721 -1.2272
v  0.8119 2.0323 -0.9370
v  0.8119 1.4721 -0.9370
v  1.1896 2.0323 -0.3493
v  1.1896 1.4721 -0.3493
v  1.1896 2.0323 0.3493
v  1.1896 1.4721 0.3493
v  0.8119 2.0323 0.9370
v  0.1473 2.1449 1.0549
v  -0.4550 2.1449 0.9683
v  -0.9148 2.1449 0.5699
v  -1.0862 2.1449 -0.0140
v  -0.9148 2.1449 -0.5978
v  -0.4550 2.1449 -0.9962
v  0.1473 2.1449 -1.0828
v  0.7008 2.1449 -0.8301
v  1.0297 2.1449 -0.3182
v  1.0297 2.1449 0.2903
v  0.7008 2.1449 0.8021
v  0.2258 0.1288 1.3352
v  0.8612 0.1288 1.0450
v  0.2258 0.6890 1.3352
v  0.8612 0.6890 1.0450
v  0.2258 1.4703 1.3352
v  0.8612 1.4703 1.0450
v  0.2258 2.0305 1.3352
v  0.8612 2.0305 1.0450
v  0.8525 2.1184 1.0205
v  0.6921 2.2615 0.8188
v  0.2171 2.1184 1.3107
v  0.1612 2.2609 1.0621
v  0.2082 2.2631 -0.2075
v  0.2042 2.1449 -0.2073
v  -0.3005 2.2631 0.0253
v  -0.3045 2.1449 0.0254
# 101 vertices

vn -0.4154 0.0029 0.9096
vn -0.4154 0.0059 0.9096
vn 0.1423 0.0059 0.9898
vn 0.0452 0.0039 0.9990
vn -0.8413 0.0029 0.5406
vn -0.8412 0.0059 0.5406
vn -1.0000 0.0029 -0.0000
vn -1.0000 0.0059 -0.0000
vn -0.8413 0.0029 -0.5406
vn -0.8412 0.0059 -0.5406
vn -0.4154 0.0029 -0.9096
vn -0.4154 0.0059 -0.9096
vn 0.1423 0.0029 -0.9898
vn 0.1423 0.0059 -0.9898
vn 0.6549 0.0029 -0.7557
vn 0.6548 0.0059 -0.7557
vn 0.9595 0.0029 -0.2817
vn 0.9595 0.0059 -0.2817
vn 0.9595 0.0029 0.2817
vn 0.9595 0.0059 0.2817
vn 0.7254 0.0039 0.6884
vn 0.6548 0.0059 0.7557
vn 0.0026 -0.9998 0.0181
vn -0.0076 -0.9998 0.0166
vn 0.0000 -1.0000 -0.0000
vn -0.0154 -0.9998 0.0099
vn 0.0120 -0.9998 0.0138
vn -0.0183 -0.9998 -0.0000
vn 0.0175 -0.9998 0.0052
vn -0.0154 -0.9998 -0.0099
vn 0.0175 -0.9998 -0.0052
vn -0.0076 -0.9998 -0.0166
vn 0.0120 -0.9998 -0.0138
vn 0.0026 -0.9998 -0.0181
vn -0.4100 0.1052 0.9060
vn -0.1459 0.0299 0.9888
vn -0.8149 0.2270 0.5333
vn -0.9427 0.3336 0.0084
vn -0.8413 0.0000 -0.5406
vn -0.4154 0.0000 -0.9096
vn 0.1423 0.0000 -0.9898
vn 0.6237 0.3336 -0.7069
vn 0.9367 0.2270 -0.2666
vn 0.9532 0.1052 0.2834
vn 0.8429 0.0299 0.5373
vn -0.4126 0.1051 0.9048
vn -0.5863 0.7224 -0.3666
vn -0.2745 0.7507 -0.6010
vn 0.1069 0.7224 -0.6832
vn 0.9540 0.1051 0.2807
vn -0.1459 -0.0357 0.9887
vn -0.4105 -0.1243 0.9034
vn -0.8060 -0.2629 0.5304
vn -1.0000 0.0000 -0.0000
vn 0.6549 0.0000 -0.7557
vn 0.9286 -0.2629 -0.2618
vn 0.9515 -0.1243 0.2813
vn 0.8427 -0.0357 0.5372
vn -0.4154 0.0000 0.9096
vn -0.4079 -0.1244 0.9045
vn -0.1423 0.0000 0.9898
vn -0.8413 0.0000 0.5406
vn 0.6549 0.0000 -0.7558
vn 0.9595 0.0000 -0.2817
vn 0.9595 0.0000 0.2817
vn 0.9507 -0.1244 0.2840
vn 0.8413 0.0000 0.5406
vn -0.2446 -0.8082 -0.5357
vn -0.5279 -0.7833 -0.3284
vn -0.7201 -0.6937 0.0180
vn 0.0975 -0.7833 -0.6140
vn 0.4852 -0.6937 -0.5324
vn -0.0798 0.8281 0.5549
vn -0.2315 0.8335 0.5016
vn -0.4818 0.8211 0.3060
vn -0.5916 0.8062 -0.0029
vn -0.5107 0.7938 -0.3303
vn -0.2553 0.7889 -0.5590
vn 0.0848 0.7938 -0.6023
vn 0.3852 0.8062 -0.4490
vn 0.5468 0.8211 -0.1637
vn 0.5307 0.8335 0.1535
vn 0.4716 0.8281 0.3031
vn -0.0062 -0.9999 -0.0135
vn -0.9096 0.0000 0.4154
vn 0.9096 0.0000 -0.4154
vn -0.9095 0.0129 0.4156
vn -0.9276 0.0535 0.3698
vn 0.9095 -0.0129 -0.4156
vn 0.8850 0.0396 -0.4640
vn 0.8710 0.0595 -0.4876
vn 0.8635 0.0966 -0.4950
vn -0.9348 0.0802 0.3461
vn -0.9356 0.0960 0.3397
vn 0.8999 0.0486 -0.4334
vn -0.9131 0.0574 0.4037
vn -0.4161 0.0130 -0.9092
vn 0.1068 0.9662 0.2345
vn 0.0003 1.0000 0.0018
vn 0.2061 0.8681 0.4516
vn 0.4112 0.1429 0.9003
vn 0.3985 0.2828 0.8725
vn 0.4154 0.0000 0.9096
vn 0.0000 1.0000 -0.0000
# 104 vertex normals

vt 0.1161 0.2462 0.0000
vt 0.1045 0.5300 0.0000
vt 0.0164 0.5263 0.0000
vt 0.0288 0.2427 0.0000
vt 0.2034 0.2498 0.0000
vt 0.1926 0.5334 0.0000
vt 0.2903 0.2532 0.0000
vt 0.2806 0.5366 0.0000
vt 0.3769 0.2562 0.0000
vt 0.3688 0.5392 0.0000
vt 0.4632 0.2585 0.0000
vt 0.4569 0.5413 0.0000
vt 0.5496 0.2599 0.0000
vt 0.5450 0.5430 0.0000
vt 0.6364 0.2607 0.0000
vt 0.6331 0.5443 0.0000
vt 0.7236 0.2611 0.0000
vt 0.7213 0.5453 0.0000
vt 0.8112 0.2616 0.0000
vt 0.8095 0.5460 0.0000
vt 0.8988 0.2622 0.0000
vt 0.8978 0.5464 0.0000
vt 0.9861 0.2623 0.0000
vt 0.9861 0.5466 0.0000
vt 0.6654 0.9641 0.0000
vt 0.5536 0.9313 0.0000
vt 0.6654 0.7575 0.0000
vt 0.4774 0.8433 0.0000
vt 0.7771 0.9314 0.0000
vt 0.4608 0.7280 0.0000
vt 0.8534 0.8434 0.0000
vt 0.5092 0.6221 0.0000
vt 0.8700 0.7281 0.0000
vt 0.6072 0.5591 0.0000
vt 0.8217 0.6221 0.0000
vt 0.7237 0.5592 0.0000
vt 0.1190 0.1760 0.0000
vt 0.0314 0.1728 0.0000
vt 0.2065 0.1798 0.0000
vt 0.2932 0.1838 0.0000
vt 0.3792 0.1873 0.0000
vt 0.4647 0.1897 0.0000
vt 0.5503 0.1908 0.0000
vt 0.6365 0.1910 0.0000
vt 0.7237 0.1908 0.0000
vt 0.8116 0.1910 0.0000
vt 0.8996 0.1920 0.0000
vt 0.1153 0.1651 0.0000
vt 0.2015 0.1679 0.0000
vt 0.2888 0.1703 0.0000
vt 0.3768 0.1724 0.0000
vt 0.4650 0.1743 0.0000
vt 0.5534 0.1761 0.0000
vt 0.6416 0.1777 0.0000
vt 0.7293 0.1791 0.0000
vt 0.8159 0.1803 0.0000
vt 0.0342 0.0741 0.0000
vt 0.1175 0.0846 0.0000
vt 0.2036 0.0863 0.0000
vt 0.2907 0.0880 0.0000
vt 0.3786 0.0897 0.0000
vt 0.4667 0.0914 0.0000
vt 0.5550 0.0932 0.0000
vt 0.6432 0.0950 0.0000
vt 0.7309 0.0971 0.0000
vt 0.8175 0.0993 0.0000
vt 0.9017 0.0928 0.0000
vt 0.1227 0.0056 0.0000
vt 0.1218 0.0756 0.0000
vt 0.0354 0.0041 0.0000
vt 0.2096 0.0065 0.0000
vt 0.2092 0.0762 0.0000
vt 0.2961 0.0069 0.0000
vt 0.2959 0.0761 0.0000
vt 0.3822 0.0074 0.0000
vt 0.3816 0.0762 0.0000
vt 0.4683 0.0085 0.0000
vt 0.4670 0.0772 0.0000
vt 0.5545 0.0104 0.0000
vt 0.5524 0.0795 0.0000
vt 0.6411 0.0132 0.0000
vt 0.6386 0.0828 0.0000
vt 0.7285 0.0163 0.0000
vt 0.7257 0.0866 0.0000
vt 0.8161 0.0196 0.0000
vt 0.8136 0.0901 0.0000
vt 0.9039 0.0224 0.0000
vt 0.3456 0.6153 0.0000
vt 0.2526 0.5915 0.0000
vt 0.2532 0.5591 0.0000
vt 0.3617 0.5861 0.0000
vt 0.1617 0.6210 0.0000
vt 0.1460 0.5937 0.0000
vt 0.1008 0.6947 0.0000
vt 0.0738 0.6807 0.0000
vt 0.0891 0.7896 0.0000
vt 0.0598 0.7931 0.0000
vt 0.1302 0.8760 0.0000
vt 0.1084 0.8954 0.0000
vt 0.2114 0.9266 0.0000
vt 0.2046 0.9554 0.0000
vt 0.3070 0.9258 0.0000
vt 0.3179 0.9542 0.0000
vt 0.3873 0.8737 0.0000
vt 0.4128 0.8925 0.0000
vt 0.4271 0.7866 0.0000
vt 0.4593 0.7896 0.0000
vt 0.4139 0.6913 0.0000
vt 0.4447 0.6786 0.0000
vt 0.3954 0.5981 0.0000
vt 0.3951 0.5775 0.0000
vt 0.5165 0.5755 0.0000
vt 0.5169 0.5961 0.0000
vt 0.2811 0.9859 0.0000
vt 0.2805 0.9660 0.0000
vt 0.3747 0.9647 0.0000
vt 0.3753 0.9847 0.0000
vt 0.6663 0.9853 0.0000
vt 0.5855 0.9866 0.0000
vt 0.5864 0.9701 0.0000
vt 0.6671 0.9688 0.0000
vt 0.1497 0.9877 0.0000
vt 0.1491 0.9677 0.0000
vt 0.7730 0.9645 0.0000
vt 0.7721 0.9810 0.0000
vt 0.0555 0.9890 0.0000
vt 0.0549 0.9690 0.0000
vt 0.8501 0.9840 0.0000
vt 0.8510 0.9674 0.0000
vt 0.8625 0.9808 0.0000
vt 0.8680 0.9440 0.0000
vt 0.8843 0.9460 0.0000
vt 0.0406 0.9848 0.0000
vt 0.0153 0.9427 0.0000
vt 0.0348 0.9404 0.0000
vt 0.8888 0.7881 0.0000
vt 0.8724 0.7874 0.0000
vt 0.0119 0.7518 0.0000
vt 0.0318 0.7513 0.0000
vt 0.0365 0.6373 0.0000
vt 0.1042 0.5565 0.0000
vt 0.1208 0.5713 0.0000
vt 0.0532 0.6521 0.0000
vt 0.8999 0.8485 0.0000
vt 0.9721 0.8481 0.0000
vt 0.9714 0.9884 0.0000
vt 0.9022 0.9888 0.0000
vt 0.8932 0.8130 0.0000
vt 0.9795 0.8124 0.0000
vt 0.9792 0.8011 0.0000
vt 0.8928 0.8017 0.0000
vt 0.8923 0.7325 0.0000
vt 0.9787 0.7318 0.0000
vt 0.8916 0.6358 0.0000
vt 0.9780 0.6352 0.0000
vt 0.8911 0.5666 0.0000
vt 0.9775 0.5660 0.0000
vt 0.2166 0.7378 0.0000
vt 0.2757 0.8040 0.0000
# 159 texture coords

g
f 1/1/1 2/2/2 3/3/3
f 3/3/3 4/4/4 1/1/1
f 5/5/5 6/6/6 2/2/2
f 2/2/2 1/1/1 5/5/5
f 7/7/7 8/8/8 6/6/6
f 6/6/6 5/5/5 7/7/7
f 9/9/9 10/10/10 8/8/8
f 8/8/8 7/7/7 9/9/9
f 11/11/11 12/12/12 10/10/10
f 10/10/10 9/9/9 11/11/11
f 13/13/13 14/14/14 12/12/12
f 12/12/12 11/11/11 13/13/13
f 15/15/15 16/16/16 14/14/14
f 14/14/14 13/13/13 15/15/15
f 17/17/17 18/18/18 16/16/16
f 16/16/16 15/15/15 17/17/17
f 19/19/19 20/20/20 18/18/18
f 18/18/18 17/17/17 19/19/19
f 21/21/21 22/22/22 20/20/20
f 20/20/20 19/19/19 21/21/21
f 4/23/4 3/24/3 22/22/22
f 22/22/22 21/21/21 4/23/4
f 3/25/23 2/26/24 23/27/25
f 2/26/24 6/28/26 23/27/25
f 22/29/27 3/25/23 23/27/25
f 6/28/26 8/30/28 23/27/25
f 20/31/29 22/29/27 23/27/25
f 8/30/28 10/32/30 23/27/25
f 18/33/31 20/31/29 23/27/25
f 10/32/30 12/34/32 23/27/25
f 16/35/33 18/33/31 23/27/25
f 12/34/32 14/36/34 23/27/25
f 14/36/34 16/35/33 23/27/25
f 24/37/35 1/1/1 4/4/4
f 4/4/4 25/38/36 24/37/35
f 26/39/37 5/5/5 1/1/1
f 1/1/1 24/37/35 26/39/37
f 27/40/38 7/7/7 5/5/5
f 5/5/5 26/39/37 27/40/38
f 28/41/39 9/9/9 7/7/7
f 7/7/7 27/40/38 28/41/39
f 29/42/40 11/11/11 9/9/9
f 9/9/9 28/41/39 29/42/40
f 30/43/41 13/13/13 11/11/11
f 11/11/11 29/42/40 30/43/41
f 31/44/42 15/15/15 13/13/13
f 13/13/13 30/43/41 31/44/42
f 32/45/43 17/17/17 15/15/15
f 15/15/15 31/44/42 32/45/43
f 33/46/44 19/19/19 17/17/17
f 17/17/17 32/45/43 33/46/44
f 34/47/45 21/21/21 19/19/19
f 19/19/19 33/46/44 34/47/45
f 24/37/35 25/38/36 35/48/46
f 36/49/37 26/39/37 24/37/35
f 24/37/35 35/48/46 36/49/37
f 37/50/38 27/40/38 26/39/37
f 26/39/37 36/49/37 37/50/38
f 38/51/47 28/41/47 27/40/38
f 27/40/38 37/50/38 38/51/47
f 39/52/48 29/42/48 28/41/47
f 28/41/47 38/51/47 39/52/48
f 39/52/48 40/53/49 30/43/49
f 30/43/49 29/42/48 39/52/48
f 40/53/49 41/54/42 31/44/42
f 31/44/42 30/43/49 40/53/49
f 41/54/42 42/55/43 32/45/43
f 32/45/43 31/44/42 41/54/42
f 42/55/43 43/56/50 33/46/44
f 33/46/44 32/45/43 42/55/43
f 33/46/44 43/56/50 34/47/45
f 44/57/51 45/58/52 35/48/46
f 35/48/46 25/38/36 44/57/51
f 46/59/53 36/49/37 35/48/46
f 35/48/46 45/58/52 46/59/53
f 47/60/54 37/50/38 36/49/37
f 36/49/37 46/59/53 47/60/54
f 48/61/39 38/51/39 37/50/38
f 37/50/38 47/60/54 48/61/39
f 49/62/40 39/52/40 38/51/39
f 38/51/39 48/61/39 49/62/40
f 50/63/41 40/53/41 39/52/40
f 39/52/40 49/62/40 50/63/41
f 51/64/55 41/54/42 40/53/41
f 40/53/41 50/63/41 51/64/55
f 52/65/56 42/55/43 41/54/42
f 41/54/42 51/64/55 52/65/56
f 53/66/57 43/56/50 42/55/43
f 42/55/43 52/65/56 53/66/57
f 54/67/58 34/47/45 43/56/50
f 43/56/50 53/66/57 54/67/58
f 55/68/59 56/69/60 44/57/51
f 44/57/51 57/70/61 55/68/59
f 58/71/62 59/72/53 56/69/60
f 56/69/60 55/68/59 58/71/62
f 60/73/54 61/74/54 59/72/53
f 59/72/53 58/71/62 60/73/54
f 62/75/39 63/76/39 61/74/54
f 61/74/54 60/73/54 62/75/39
f 64/77/40 65/78/40 63/76/39
f 63/76/39 62/75/39 64/77/40
f 66/79/41 67/80/41 65/78/40
f 65/78/40 64/77/40 66/79/41
f 68/81/63 69/82/63 67/80/41
f 67/80/41 66/79/41 68/81/63
f 70/83/64 71/84/56 69/82/63
f 69/82/63 68/81/63 70/83/64
f 72/85/65 73/86/66 71/84/56
f 71/84/56 70/83/64 72/85/65
f 74/87/67 54/67/58 73/86/66
f 73/86/66 72/85/65 74/87/67
f 49/62/68 48/61/69 63/76/69
f 63/76/69 65/78/68 49/62/68
f 48/61/69 47/60/70 61/74/70
f 61/74/70 63/76/69 48/61/69
f 47/60/70 46/59/53 59/72/53
f 59/72/53 61/74/70 47/60/70
f 46/59/53 45/58/52 56/69/60
f 56/69/60 59/72/53 46/59/53
f 44/57/51 56/69/60 45/58/52
f 67/80/71 50/63/71 49/62/68
f 49/62/68 65/78/68 67/80/71
f 69/82/72 51/64/72 50/63/71
f 50/63/71 67/80/71 69/82/72
f 71/84/56 52/65/56 51/64/72
f 51/64/72 69/82/72 71/84/56
f 73/86/66 53/66/57 52/65/56
f 52/65/56 71/84/56 73/86/66
f 53/66/57 73/86/66 54/67/58
f 75/88/73 76/89/74 55/90/74
f 55/90/74 57/91/73 75/88/73
f 76/89/74 77/92/75 58/93/75
f 58/93/75 55/90/74 76/89/74
f 77/92/75 78/94/76 60/95/76
f 60/95/76 58/93/75 77/92/75
f 78/94/76 79/96/77 62/97/77
f 62/97/77 60/95/76 78/94/76
f 79/96/77 80/98/78 64/99/78
f 64/99/78 62/97/77 79/96/77
f 81/100/79 66/101/79 64/99/78
f 64/99/78 80/98/78 81/100/79
f 82/102/80 68/103/80 66/101/79
f 66/101/79 81/100/79 82/102/80
f 83/104/81 70/105/81 68/103/80
f 68/103/80 82/102/80 83/104/81
f 84/106/82 72/107/82 70/105/81
f 70/105/81 83/104/81 84/106/82
f 85/108/83 74/109/83 72/107/82
f 72/107/82 84/106/82 85/108/83
f 86/110/84 4/111/84 21/112/84
f 21/112/84 87/113/84 86/110/84
f 88/114/85 25/115/85 4/116/85
f 4/116/85 86/117/85 88/114/85
f 89/118/86 87/119/86 21/120/86
f 21/120/86 34/121/86 89/118/86
f 90/122/85 44/123/85 25/115/85
f 25/115/85 88/114/85 90/122/85
f 89/118/86 34/121/86 54/124/86
f 54/124/86 91/125/86 89/118/86
f 92/126/87 57/127/88 44/123/85
f 44/123/85 90/122/85 92/126/87
f 93/128/89 91/125/86 54/124/86
f 54/124/86 74/129/90 93/128/89
f 94/130/91 74/129/90 85/131/92
f 85/131/92 95/132/92 94/130/91
f 96/133/93 97/134/94 75/135/94
f 75/135/94 57/127/88 96/133/93
f 98/136/95 95/132/92 85/131/92
f 85/131/92 99/137/95 98/136/95
f 100/138/96 101/139/96 75/135/94
f 75/135/94 97/134/94 100/138/96
f 100/140/97 98/141/97 99/142/97
f 99/142/97 101/143/97 100/140/97
f 97/144/98 95/145/98 98/146/99
f 98/146/99 100/147/99 97/144/98
f 95/145/98 97/144/98 96/148/100
f 96/148/100 94/149/100 95/145/98
f 93/128/89 74/129/90 94/130/91
f 57/127/88 92/126/87 96/133/93
f 93/150/101 94/149/102 96/148/102
f 96/148/102 92/151/101 93/150/101
f 90/152/103 91/153/103 93/150/101
f 93/150/101 92/151/101 90/152/103
f 91/153/103 90/152/103 88/154/103
f 88/154/103 89/155/103 91/153/103
f 86/156/103 87/157/103 89/155/103
f 89/155/103 88/154/103 86/156/103
f 76/89/104 75/88/104 101/158/104
f 77/92/104 101/158/104 78/94/104
f 85/108/104 84/106/104 99/159/104
f 83/104/104 82/102/104 99/159/104
f 82/102/104 81/100/104 99/159/104
f 80/98/104 101/158/104 81/100/104
f 79/96/104 78/94/104 101/158/104
f 76/89/104 101/158/104 77/92/104
f 79/96/104 101/158/104 80/98/104
f 101/158/104 99/159/104 81/100/104
f 83/104/104 99/159/104 84/106/104
# 198 faces

