# 3ds Max Wavefront OBJ Exporter v0.97b - (c)2007 guruware
# File Created: 15.02.2018 17:59:58

#
# object Box001
#

v  1.0000 -1.0000 -1.0000
v  -1.0000 -1.0000 -1.0000
v  -1.0000 -1.0000 1.0000
v  1.0000 -1.0000 1.0000
v  1.0000 1.0000 -1.0000
v  1.0000 1.0000 1.0000
v  -1.0000 1.0000 1.0000
v  -1.0000 1.0000 -1.0000
# 8 vertices

vn -0.5774 0.5774 0.5774
vn 0.5774 0.5774 0.5774
vn 0.5774 0.5774 -0.5774
vn -0.5774 0.5774 -0.5774
vn -0.5774 -0.5774 0.5774
vn -0.5774 -0.5774 -0.5774
vn 0.5774 -0.5774 -0.5774
vn 0.5774 -0.5774 0.5774
# 8 vertex normals

vt 0.0000 1.0000 0.0000
vt 1.0000 1.0000 0.0000
vt 1.0000 0.0000 0.0000
vt 0.0000 0.0000 0.0000
vt 1.0000 1.0000 1.0000
vt 1.0000 0.0000 1.0000
vt 0.0000 0.0000 1.0000
vt 0.0000 1.0000 1.0000
# 8 texture coords

g Box001
f 1/1/1 2/2/2 3/3/3
f 3/3/3 4/4/4 1/1/1
f 5/5/5 6/6/6 7/7/7
f 7/7/7 8/8/8 5/5/5
f 6/2/6 4/3/4 3/4/3
f 3/4/3 7/1/7 6/2/6
f 5/5/5 1/6/1 4/7/4
f 4/7/4 6/8/6 5/5/5
f 8/5/8 2/6/2 1/7/1
f 1/7/1 5/8/5 8/5/8
f 7/2/7 3/3/3 2/4/2
f 2/4/2 8/1/8 7/2/7
# 12 faces

